{
	"materials":[{
		"pbrMetallicRoughness":{
			"baseColorFactor":[0.0,
			0.66,
			0.15400000000000034,
			1.0],
			"metallicFactor":0.0,
			"roughnessFactor":0.5
		},
		"emissiveFactor":[0.0,
		0.0,
		0.0],
		"alphaMode":"OPAQUE",
		"doubleSided":false,
		"name":"Mat"
	}],
	"nodes":[{
		"rotation":[0.0,
		0.0,
		0.0,
		-1.0],
		"name":"ヌル",
		"children":[1],
		"translation":[0.0,
		0.0,
		0.0],
		"scale":[1.0,
		1.0,
		1.0]
	},
	{
		"rotation":[0.0,
		0.0,
		0.0,
		-1.0],
		"name":"Text",
		"children":[2],
		"translation":[-422.1513671875,
		0.0,
		0.0],
		"scale":[1.0,
		1.0,
		1.0]
	},
	{
		"name":"1",
		"children":[3]
	},
	{
		"name":"TANGENT",
		"children":[4,
		5,
		6,
		7,
		8,
		9,
		10]
	},
	{
		"name":"T",
		"mesh":0
	},
	{
		"rotation":[0.0,
		0.0,
		0.0,
		-1.0],
		"name":"A",
		"translation":[117.1875,
		0.0,
		0.0],
		"scale":[1.0,
		1.0,
		1.0],
		"mesh":1
	},
	{
		"rotation":[0.0,
		0.0,
		0.0,
		-1.0],
		"name":"N",
		"translation":[257.8125,
		0.0,
		0.0],
		"scale":[1.0,
		1.0,
		1.0],
		"mesh":2
	},
	{
		"rotation":[0.0,
		0.0,
		0.0,
		-1.0],
		"name":"G",
		"translation":[415.8203125,
		0.0,
		-2.1693674893577826e-30],
		"scale":[1.0,
		1.0,
		1.0],
		"mesh":3
	},
	{
		"rotation":[0.0,
		0.0,
		0.0,
		-1.0],
		"name":"E",
		"translation":[558.0078125,
		0.0,
		-6.310887241768095e-30],
		"scale":[1.0,
		1.0,
		1.0],
		"mesh":4
	},
	{
		"rotation":[0.0,
		0.0,
		0.0,
		-1.0],
		"name":"N",
		"translation":[664.453125,
		0.0,
		0.0],
		"scale":[1.0,
		1.0,
		1.0],
		"mesh":5
	},
	{
		"rotation":[0.0,
		0.0,
		0.0,
		-1.0],
		"name":"T",
		"translation":[822.4609375,
		0.0,
		-1.262177448353619e-29],
		"scale":[1.0,
		1.0,
		1.0],
		"mesh":6
	}],
	"asset":{
		"version":"2.0",
		"generator":"Created using the official Cinema 4D glTF Exporter 1.000x284978"
	},
	"scenes":[{
		"nodes":[0]
	}],
	"meshes":[{
		"name":"T",
		"primitives":[{
			"attributes":{
				"POSITION":7,
				"NORMAL":8,
				"TEXCOORD_0":9
			},
			"indices":6,
			"material":0
		}]
	},
	{
		"name":"A",
		"primitives":[{
			"attributes":{
				"POSITION":11,
				"NORMAL":12,
				"TEXCOORD_0":13
			},
			"indices":10,
			"material":0
		}]
	},
	{
		"name":"N",
		"primitives":[{
			"attributes":{
				"POSITION":15,
				"NORMAL":16,
				"TEXCOORD_0":17
			},
			"indices":14,
			"material":0
		}]
	},
	{
		"name":"G",
		"primitives":[{
			"attributes":{
				"POSITION":19,
				"NORMAL":20,
				"TEXCOORD_0":21
			},
			"indices":18,
			"material":0
		}]
	},
	{
		"name":"E",
		"primitives":[{
			"attributes":{
				"POSITION":23,
				"NORMAL":24,
				"TEXCOORD_0":25
			},
			"indices":22,
			"material":0
		}]
	},
	{
		"name":"N",
		"primitives":[{
			"attributes":{
				"POSITION":27,
				"NORMAL":28,
				"TEXCOORD_0":29
			},
			"indices":26,
			"material":0
		}]
	},
	{
		"name":"T",
		"primitives":[{
			"attributes":{
				"POSITION":31,
				"NORMAL":32,
				"TEXCOORD_0":33
			},
			"indices":30,
			"material":0
		}]
	}],
	"accessors":[{
		"bufferView":0,
		"type":"SCALAR",
		"componentType":5126,
		"count":2,
		"byteOffset":0,
		"min":[0.0],
		"max":[1.9666666984558106]
	},
	{
		"bufferView":0,
		"type":"VEC3",
		"componentType":5126,
		"count":2,
		"byteOffset":8,
		"min":[0.0,
		0.0,
		0.0],
		"max":[0.0,
		0.0,
		0.0]
	},
	{
		"bufferView":1,
		"type":"SCALAR",
		"componentType":5126,
		"count":3,
		"byteOffset":0,
		"min":[0.0],
		"max":[1.9666666984558106]
	},
	{
		"bufferView":1,
		"type":"VEC4",
		"componentType":5126,
		"count":3,
		"byteOffset":12,
		"min":[0.0,
		-0.9996573328971863,
		0.0,
		-1.0],
		"max":[0.0,
		0.0,
		0.0,
		0.9986295104026794]
	},
	{
		"bufferView":2,
		"type":"SCALAR",
		"componentType":5126,
		"count":2,
		"byteOffset":0,
		"min":[0.0],
		"max":[1.9666666984558106]
	},
	{
		"bufferView":2,
		"type":"VEC3",
		"componentType":5126,
		"count":2,
		"byteOffset":8,
		"min":[1.0,
		1.0,
		1.0],
		"max":[1.0,
		1.0,
		1.0]
	},
	{
		"bufferView":3,
		"type":"SCALAR",
		"componentType":5123,
		"count":372,
		"byteOffset":0,
		"min":[0],
		"max":[175]
	},
	{
		"bufferView":4,
		"type":"VEC3",
		"componentType":5126,
		"count":176,
		"byteOffset":0,
		"min":[3.02734375,
		0.0,
		-25.0],
		"max":[114.35546875,
		140.0390625,
		5.000000476837158]
	},
	{
		"bufferView":4,
		"type":"VEC3",
		"componentType":5126,
		"count":176,
		"byteOffset":12,
		"min":[-1.0,
		-1.0,
		-1.0],
		"max":[1.0,
		1.0,
		1.0]
	},
	{
		"bufferView":4,
		"type":"VEC2",
		"componentType":5126,
		"count":176,
		"byteOffset":24,
		"min":[0.0,
		0.0],
		"max":[1.0,
		1.0]
	},
	{
		"bufferView":5,
		"type":"SCALAR",
		"componentType":5123,
		"count":864,
		"byteOffset":0,
		"min":[0],
		"max":[339]
	},
	{
		"bufferView":6,
		"type":"VEC3",
		"componentType":5126,
		"count":340,
		"byteOffset":0,
		"min":[0.9765625,
		0.0,
		-25.0],
		"max":[139.16015625,
		140.0390625,
		5.000000476837158]
	},
	{
		"bufferView":6,
		"type":"VEC3",
		"componentType":5126,
		"count":340,
		"byteOffset":12,
		"min":[-0.9928716421127319,
		-1.0,
		-1.0],
		"max":[0.9922803044319153,
		1.0,
		1.0]
	},
	{
		"bufferView":6,
		"type":"VEC2",
		"componentType":5126,
		"count":340,
		"byteOffset":24,
		"min":[0.0,
		0.0],
		"max":[1.0,
		1.0]
	},
	{
		"bufferView":7,
		"type":"SCALAR",
		"componentType":5123,
		"count":900,
		"byteOffset":0,
		"min":[0],
		"max":[331]
	},
	{
		"bufferView":8,
		"type":"VEC3",
		"componentType":5126,
		"count":332,
		"byteOffset":0,
		"min":[16.015625,
		0.0,
		-25.0],
		"max":[141.9921875,
		140.0390625,
		5.0]
	},
	{
		"bufferView":8,
		"type":"VEC3",
		"componentType":5126,
		"count":332,
		"byteOffset":12,
		"min":[-1.0,
		-1.0,
		-1.0],
		"max":[1.0,
		1.0,
		1.0]
	},
	{
		"bufferView":8,
		"type":"VEC2",
		"componentType":5126,
		"count":332,
		"byteOffset":24,
		"min":[0.0,
		0.0],
		"max":[1.0,
		1.0]
	},
	{
		"bufferView":9,
		"type":"SCALAR",
		"componentType":5123,
		"count":4596,
		"byteOffset":0,
		"min":[0],
		"max":[1226]
	},
	{
		"bufferView":10,
		"type":"VEC3",
		"componentType":5126,
		"count":1227,
		"byteOffset":0,
		"min":[7.2265625,
		-2.44140625,
		-25.0],
		"max":[130.95703125,
		142.3828125,
		5.0]
	},
	{
		"bufferView":10,
		"type":"VEC3",
		"componentType":5126,
		"count":1227,
		"byteOffset":12,
		"min":[-1.0,
		-1.0,
		-1.0],
		"max":[1.0,
		1.0,
		1.0]
	},
	{
		"bufferView":10,
		"type":"VEC2",
		"componentType":5126,
		"count":1227,
		"byteOffset":24,
		"min":[0.0,
		0.0],
		"max":[1.0,
		1.0]
	},
	{
		"bufferView":11,
		"type":"SCALAR",
		"componentType":5123,
		"count":564,
		"byteOffset":0,
		"min":[0],
		"max":[263]
	},
	{
		"bufferView":12,
		"type":"VEC3",
		"componentType":5126,
		"count":264,
		"byteOffset":0,
		"min":[16.015625,
		0.0,
		-25.0],
		"max":[100.0,
		140.0390625,
		5.000000476837158]
	},
	{
		"bufferView":12,
		"type":"VEC3",
		"componentType":5126,
		"count":264,
		"byteOffset":12,
		"min":[-1.0,
		-1.0,
		-1.0],
		"max":[1.0,
		1.0,
		1.0]
	},
	{
		"bufferView":12,
		"type":"VEC2",
		"componentType":5126,
		"count":264,
		"byteOffset":24,
		"min":[0.0,
		0.0],
		"max":[1.0,
		1.0]
	},
	{
		"bufferView":13,
		"type":"SCALAR",
		"componentType":5123,
		"count":900,
		"byteOffset":0,
		"min":[0],
		"max":[331]
	},
	{
		"bufferView":14,
		"type":"VEC3",
		"componentType":5126,
		"count":332,
		"byteOffset":0,
		"min":[16.015625,
		0.0,
		-25.0],
		"max":[141.9921875,
		140.0390625,
		5.0]
	},
	{
		"bufferView":14,
		"type":"VEC3",
		"componentType":5126,
		"count":332,
		"byteOffset":12,
		"min":[-1.0,
		-1.0,
		-1.0],
		"max":[1.0,
		1.0,
		1.0]
	},
	{
		"bufferView":14,
		"type":"VEC2",
		"componentType":5126,
		"count":332,
		"byteOffset":24,
		"min":[0.0,
		0.0],
		"max":[1.0,
		1.0]
	},
	{
		"bufferView":15,
		"type":"SCALAR",
		"componentType":5123,
		"count":372,
		"byteOffset":0,
		"min":[0],
		"max":[175]
	},
	{
		"bufferView":16,
		"type":"VEC3",
		"componentType":5126,
		"count":176,
		"byteOffset":0,
		"min":[3.02734375,
		0.0,
		-25.0],
		"max":[114.35546875,
		140.0390625,
		5.000000476837158]
	},
	{
		"bufferView":16,
		"type":"VEC3",
		"componentType":5126,
		"count":176,
		"byteOffset":12,
		"min":[-1.0,
		-1.0,
		-1.0],
		"max":[1.0,
		1.0,
		1.0]
	},
	{
		"bufferView":16,
		"type":"VEC2",
		"componentType":5126,
		"count":176,
		"byteOffset":24,
		"min":[0.0,
		0.0],
		"max":[1.0,
		1.0]
	}],
	"bufferViews":[{
		"buffer":0,
		"byteOffset":0,
		"byteLength":32
	},
	{
		"buffer":0,
		"byteOffset":32,
		"byteLength":60
	},
	{
		"buffer":0,
		"byteOffset":92,
		"byteLength":32
	},
	{
		"buffer":1,
		"byteOffset":0,
		"byteLength":744,
		"target":34963
	},
	{
		"buffer":1,
		"byteOffset":744,
		"byteLength":5632,
		"target":34962,
		"byteStride":32
	},
	{
		"buffer":2,
		"byteOffset":0,
		"byteLength":1728,
		"target":34963
	},
	{
		"buffer":2,
		"byteOffset":1728,
		"byteLength":10880,
		"target":34962,
		"byteStride":32
	},
	{
		"buffer":3,
		"byteOffset":0,
		"byteLength":1800,
		"target":34963
	},
	{
		"buffer":3,
		"byteOffset":1800,
		"byteLength":10624,
		"target":34962,
		"byteStride":32
	},
	{
		"buffer":4,
		"byteOffset":0,
		"byteLength":9192,
		"target":34963
	},
	{
		"buffer":4,
		"byteOffset":9192,
		"byteLength":39264,
		"target":34962,
		"byteStride":32
	},
	{
		"buffer":5,
		"byteOffset":0,
		"byteLength":1128,
		"target":34963
	},
	{
		"buffer":5,
		"byteOffset":1128,
		"byteLength":8448,
		"target":34962,
		"byteStride":32
	},
	{
		"buffer":6,
		"byteOffset":0,
		"byteLength":1800,
		"target":34963
	},
	{
		"buffer":6,
		"byteOffset":1800,
		"byteLength":10624,
		"target":34962,
		"byteStride":32
	},
	{
		"buffer":7,
		"byteOffset":0,
		"byteLength":744,
		"target":34963
	},
	{
		"buffer":7,
		"byteOffset":744,
		"byteLength":5632,
		"target":34962,
		"byteStride":32
	}],
	"buffers":[{
		"uri":"data:application/octet-stream;base64,",
		"byteLength":124
	},
	{
		"uri":"data:application/octet-stream;base64,",
		"byteLength":6376
	},
	{
		"uri":"data:application/octet-stream;base64,",
		"byteLength":12608
	},
	{
		"uri":"data:application/octet-stream;base64,",
		"byteLength":12424
	},
	{
		"uri":"data:application/octet-stream;base64,",
		"byteLength":48456
	},
	{
		"uri":"data:application/octet-stream;base64,",
		"byteLength":9576
	},
	{
		"uri":"data:application/octet-stream;base64,",
		"byteLength":12424
	},
	{
		"uri":"data:application/octet-stream;base64,",
		"byteLength":6376
	}],
	"animations":[{
		"samplers":[{
			"input":0,
			"interpolation":"LINEAR",
			"output":1
		},
		{
			"input":2,
			"interpolation":"LINEAR",
			"output":3
		},
		{
			"input":4,
			"interpolation":"LINEAR",
			"output":5
		}],
		"channels":[{
			"sampler":0,
			"target":{
				"node":0,
				"path":"translation"
			}
		},
		{
			"sampler":1,
			"target":{
				"node":0,
				"path":"rotation"
			}
		},
		{
			"sampler":2,
			"target":{
				"node":0,
				"path":"scale"
			}
		}]
	}]
}